<?xml version="1.0" encoding="utf-8"?>
<!-- Generator: Adobe Illustrator 22.0.0, SVG Export Plug-In . SVG Version: 6.00 Build 0)  -->
<svg version="1.1" id="Layer_1" xmlns="http://www.w3.org/2000/svg" xmlns:xlink="http://www.w3.org/1999/xlink" x="0px" y="0px"
	 viewBox="0 0 214 240" style="enable-background:new 0 0 214 240;" xml:space="preserve">
<style type="text/css">
	.st0{fill:#5B5B5B;}
</style>
<title>Page 1</title>
<desc>Created with Sketch.</desc>
<g id="Page-1">
	<g>
		<g>
			<path class="st0" d="M120,223.6c-27.7,0-53.7-10.8-73.3-30.4c-19.6-19.6-30.4-45.6-30.4-73.3s10.8-53.7,30.4-73.3
				S92.3,16.4,120,16.4c14.4,0,28.4,2.9,41.6,8.7c12.7,5.5,24,13.5,33.6,23.6c2.5,2.6,2.4,6.8-0.2,9.2c-2.6,2.5-6.8,2.4-9.2-0.2
				c-8.4-8.8-18.2-15.7-29.3-20.6c-11.4-5-23.7-7.6-36.3-7.6c-49.9,0-90.5,40.6-90.5,90.6s40.6,90.6,90.5,90.6
				c12.6,0,24.9-2.6,36.3-7.6c11.1-4.9,20.9-11.8,29.3-20.6c2.5-2.6,6.6-2.7,9.2-0.2c2.6,2.5,2.7,6.6,0.2,9.2
				c-9.6,10.1-20.9,18-33.6,23.6C148.4,220.7,134.5,223.6,120,223.6"/>
			<path class="st0" d="M120,202.9c-45.7,0-82.9-37.2-82.9-82.9S74.3,37.1,120,37.1c11.6,0,22.8,2.3,33.2,6.9
				c10.1,4.5,19.2,10.8,26.8,18.8c1.6,1.7,1.6,4.5-0.2,6.2c-1.8,1.7-4.5,1.6-6.2-0.2C159.6,54,140.5,45.8,120,45.8
				c-40.9,0-74.2,33.3-74.2,74.2s33.3,74.2,74.2,74.2c11.1,0,21.7-2.4,31.6-7c2.2-1,4.8-0.1,5.8,2.1c1,2.2,0.1,4.8-2.1,5.8
				C144.2,200.2,132.3,202.9,120,202.9"/>
			<path class="st0" d="M204.1,168.9c3,2,3.8,6.1,1.8,9.1c-2,3-6.1,3.8-9.1,1.8c-3-2-3.8-6.1-1.8-9.1
				C197.1,167.6,201.2,166.8,204.1,168.9"/>
			<path class="st0" d="M120,240c-32.1,0-62.2-12.5-84.8-35.1C12.5,182.2,0,152.1,0,120s12.5-62.2,35.2-84.8C57.8,12.5,87.9,0,120,0
				c16.7,0,32.9,3.4,48.1,10c14.7,6.4,27.8,15.6,38.8,27.3c1.7,1.8,1.6,4.5-0.1,6.2c-1.8,1.7-4.5,1.6-6.2-0.2
				c-10.3-10.8-22.4-19.3-36-25.3c-14.1-6.2-29.1-9.3-44.6-9.3c-29.7,0-57.7,11.6-78.7,32.6c-21,21-32.6,49-32.6,78.7
				s11.6,57.7,32.6,78.7c21,21,49,32.6,78.7,32.6c4.4,0,8.8-0.3,13.1-0.8c2.4-0.3,4.6,1.4,4.8,3.8c0.3,2.4-1.4,4.6-3.8,4.8
				C129.4,239.7,124.7,240,120,240"/>
			<path class="st0" d="M146.5,236.9c-2,0-3.8-1.4-4.2-3.4c-0.6-2.3,0.9-4.7,3.2-5.2c14.9-3.5,28.7-9.9,41-19.1
				c1.9-1.4,4.7-1.1,6.1,0.9c1.4,1.9,1.1,4.7-0.9,6.1c-13.3,9.9-28.2,16.9-44.3,20.7C147.2,236.9,146.8,236.9,146.5,236.9"/>
			<path class="st0" d="M199.2,208.6c-1.2,0-2.3-0.5-3.2-1.4c-1.6-1.8-1.6-4.5,0.2-6.2c1.6-1.6,3.2-3.1,4.8-4.8
				c1.6-1.8,4.4-1.8,6.2-0.2c1.8,1.7,1.8,4.4,0.2,6.2c-1.7,1.8-3.4,3.5-5.2,5.1C201.4,208.2,200.3,208.6,199.2,208.6"/>
			<path class="st0" d="M164.8,188.9c-1.4,0-2.7-0.6-3.6-1.8c-1.4-2-0.9-4.7,1-6.1c4.9-3.5,7.3-5.5,11.5-9.9
				c1.7-1.7,4.4-1.8,6.2-0.1c1.7,1.7,1.8,4.4,0.1,6.2c-4.7,5-7.8,7.4-12.8,11C166.5,188.6,165.6,188.9,164.8,188.9"/>
			<path class="st0" d="M207,37.3c-5.4-5.7-11.4-10.9-17.8-15.4c-6.4-4.5-13.3-8.4-20.5-11.6c-7.7-3.4-15.8-6.1-24.1-7.8
				C136.4,0.8,127.9,0,119.4,0c-7.5,0-15,0.8-22.3,2.2c-7.2,1.4-14.4,3.5-21.2,6.2c-6.8,2.7-13.4,6-19.6,9.9
				c-6.3,4-12.2,8.5-17.7,13.5c-5.5,5.1-10.6,10.7-15,16.7c-4.4,5.9-8.3,12.3-11.5,18.9C8.8,74,6.2,80.9,4.3,88
				c-2,7.1-3.3,14.4-3.9,21.8c-0.6,7.9-0.6,15.8,0.3,23.6c0.9,8.1,2.6,16.1,5.2,23.9c2.5,7.7,5.8,15.1,9.8,22.1
				c4.1,7.2,9.1,14.1,14.6,20.3c5.2,5.8,10.9,11.1,17.1,15.8c5.9,4.5,12.2,8.4,18.8,11.7c6.6,3.3,13.5,6,20.5,8
				c7.1,2.1,14.4,3.4,21.8,4.1c3.6,0.3,7.2,0.5,10.9,0.5c-0.8-6.4-2.4-12.7-4.8-18.6c-2.3-5.8-5.4-11.3-9.1-16.3
				c-3.7-5-8-9.6-12.8-13.5c-4.8-4-10.2-7.3-15.8-9.9c-1.4-0.6-2.9-1.3-4.3-1.8c-0.4-0.1-0.7-0.3-1.1-0.4c-0.2-0.1-0.3-0.1-0.5-0.2
				c-0.2-0.1-0.2-0.4-0.3-0.7c-0.3-0.9-0.7-1.7-1.1-2.5c-0.9-1.7-1.9-3.2-3.2-4.6c-1.2-1.4-2.5-2.7-3.7-4.1
				c-4.5-5.5-8.3-11.6-11.1-18.2c-2.8-6.5-4.6-13.5-5.4-20.5c-0.7-6.5-0.6-13.1,0.3-19.6c0.9-5.9,2.5-11.7,4.8-17.2
				c2.2-5.4,5.1-10.5,8.5-15.2c3.4-4.7,7.3-9,11.7-12.8C76,60,80.8,56.7,86,54c5.2-2.7,10.8-4.8,16.5-6.2c5.9-1.4,12.1-2.1,18.2-2.1
				c7,0.1,14,1.1,20.7,3.1c6.6,2,12.9,4.9,18.7,8.6c2.9,1.9,5.8,4,8.4,6.3c1.3,1.1,2.6,2.4,3.9,3.6c1.3,1.3,2.5,2.6,3.9,3.8
				c5.6,4.4,13,5.9,19.8,4.2c6.7-1.7,12.3-6.4,15.2-12.7c2.5-5.5,2.7-12,0.6-17.7C210.7,42.1,209.1,39.5,207,37.3
				C195.9,25.6,215.7,46.5,207,37.3"/>
			<path class="st0" d="M148.4,120c0-15.7-12.7-28.4-28.4-28.4S91.6,104.3,91.6,120s12.7,28.4,28.4,28.4
				C135.7,148.4,148.4,135.7,148.4,120"/>
		</g>
	</g>
</g>
</svg>
